<svg width="139" height="139" viewBox="0 0 139 139" fill="none" xmlns="http://www.w3.org/2000/svg">
<path d="M129.507 78.6943L133.145 77.7846C133.253 77.7577 133.377 77.7308 133.517 77.7039C133.662 77.6774 133.814 77.6539 133.974 77.6334C133.662 77.5102 133.405 77.3917 133.201 77.2778L129.902 75.5087L129.507 78.6943ZM126.041 80.7075L126.152 79.8143C126.165 79.7111 126.201 79.6309 126.26 79.5738C126.32 79.5167 126.391 79.4772 126.474 79.4552L128.634 78.9126L129.108 75.0839L127.147 74.0308C127.079 73.9981 127.021 73.9446 126.974 73.8702C126.926 73.7959 126.909 73.7091 126.921 73.6098L127.032 72.7167L135.142 77.1856L134.997 78.3527L126.041 80.7075Z" fill="#84B5C5"/>
<path d="M126.015 84.2811C125.931 84.6025 125.897 84.8889 125.91 85.1403C125.923 85.3916 125.977 85.6079 126.07 85.7891C126.167 85.9752 126.297 86.1266 126.461 86.2434C126.629 86.3612 126.823 86.4486 127.044 86.5057C127.474 86.6169 127.852 86.5516 128.179 86.3098C128.51 86.069 128.755 85.6427 128.913 85.0309L129.38 83.2303L126.481 82.4805L126.015 84.2811ZM133.022 84.1724L130.181 83.4376L129.796 84.9246C129.714 85.2421 129.678 85.5261 129.687 85.7764C129.696 86.0307 129.742 86.2493 129.827 86.4324C129.911 86.6194 130.03 86.7722 130.186 86.8908C130.345 87.0105 130.529 87.0973 130.738 87.1514C131.23 87.2787 131.626 87.2242 131.927 86.988C132.232 86.7528 132.464 86.3254 132.625 85.7058L133.022 84.1724ZM133.513 85.9357C133.381 86.4469 133.217 86.8734 133.021 87.2152C132.824 87.5609 132.602 87.8278 132.355 88.0159C132.107 88.2079 131.833 88.325 131.533 88.3672C131.236 88.4104 130.92 88.3884 130.583 88.3012C130.378 88.2481 130.189 88.1641 130.016 88.0492C129.846 87.9392 129.696 87.7992 129.567 87.6294C129.437 87.4595 129.332 87.2588 129.252 87.0273C129.174 86.8006 129.129 86.5451 129.115 86.2607C128.841 86.8425 128.503 87.2448 128.103 87.4675C127.705 87.6952 127.247 87.7419 126.728 87.6076C126.375 87.5165 126.071 87.3675 125.814 87.1607C125.557 86.9578 125.356 86.7035 125.213 86.3977C125.068 86.0957 124.984 85.7478 124.962 85.3537C124.944 84.9607 124.995 84.5318 125.116 84.0671L125.877 81.1281L134.201 83.2813L133.513 85.9357Z" fill="#84B5C5"/>
<path d="M124.852 97.2179C124.259 96.9671 123.754 96.6427 123.336 96.2445C122.922 95.848 122.608 95.4028 122.396 94.9092C122.183 94.4155 122.08 93.8853 122.085 93.3187C122.093 92.7572 122.219 92.1855 122.466 91.6035C122.712 91.0214 123.034 90.5322 123.432 90.1359C123.834 89.7411 124.286 89.448 124.788 89.2565C125.29 89.065 125.828 88.9796 126.401 89.0005C126.978 89.0229 127.563 89.1595 128.156 89.4102C128.75 89.661 129.253 89.9847 129.667 90.3812C130.085 90.7794 130.4 91.2253 130.613 91.7189C130.829 92.2142 130.935 92.7433 130.931 93.3063C130.928 93.8693 130.803 94.4418 130.556 95.0238C130.31 95.6058 129.986 96.0942 129.585 96.489C129.181 96.8875 128.727 97.1817 128.221 97.3716C127.718 97.5631 127.179 97.6477 126.602 97.6253C126.029 97.6045 125.446 97.4687 124.852 97.2179ZM125.318 96.1183C125.804 96.3239 126.269 96.4422 126.712 96.4731C127.155 96.504 127.56 96.454 127.928 96.323C128.3 96.1936 128.631 95.9861 128.921 95.7006C129.212 95.415 129.447 95.0586 129.628 94.6313C129.807 94.2077 129.898 93.7924 129.901 93.3853C129.904 92.9783 129.823 92.5946 129.659 92.2341C129.496 91.8788 129.25 91.5531 128.919 91.2569C128.588 90.9608 128.18 90.7099 127.693 90.5043C127.207 90.2987 126.742 90.1804 126.299 90.1495C125.86 90.1201 125.455 90.1702 125.083 90.2996C124.713 90.4343 124.383 90.6444 124.093 90.9299C123.806 91.217 123.573 91.5723 123.394 91.996C123.213 92.4233 123.12 92.8397 123.113 93.2451C123.11 93.6521 123.19 94.0333 123.352 94.3885C123.518 94.7454 123.765 95.0711 124.092 95.3657C124.423 95.6618 124.831 95.9127 125.318 96.1183Z" fill="#84B5C5"/>
<path d="M119.309 99.9695C119.122 100.273 119.007 100.575 118.962 100.876C118.917 101.177 118.937 101.466 119.02 101.743C119.101 102.023 119.243 102.284 119.446 102.527C119.647 102.773 119.901 102.99 120.207 103.179L124.658 105.918L124.05 106.904L119.6 104.164C119.178 103.904 118.828 103.595 118.551 103.237C118.271 102.882 118.077 102.496 117.966 102.081C117.857 101.671 117.839 101.239 117.911 100.786C117.984 100.333 118.158 99.8813 118.435 99.4317C118.712 98.9822 119.037 98.6231 119.409 98.3544C119.782 98.0856 120.177 97.906 120.594 97.8154C121.015 97.727 121.448 97.7257 121.893 97.8118C122.336 97.9012 122.769 98.0759 123.191 98.3359L127.642 101.075L127.034 102.061L122.589 99.3249C122.282 99.1362 121.975 99.0058 121.667 98.9337C121.357 98.865 121.06 98.8558 120.775 98.906C120.488 98.9597 120.219 99.0732 119.966 99.2466C119.715 99.4255 119.496 99.6664 119.309 99.9695Z" fill="#84B5C5"/>
<path d="M118.004 112.996L119.755 110.831L113.829 106.042L114.557 105.141L120.484 109.931L122.238 107.762L122.999 108.377L118.765 113.61L118.004 112.996Z" fill="#84B5C5"/>
<path d="M105.961 124.699L100.776 117.841L101.59 117.226L105.4 122.266C105.451 122.333 105.504 122.406 105.558 122.485C105.61 122.566 105.663 122.649 105.716 122.734L104.83 116.666C104.795 116.467 104.852 116.311 105.002 116.198L105.136 116.097C105.286 115.983 105.452 115.971 105.634 116.059L111.294 118.551C111.147 118.396 111.019 118.247 110.911 118.104L107.1 113.064L107.914 112.449L113.1 119.308L112.415 119.825C112.332 119.887 112.262 119.928 112.206 119.945C112.149 119.963 112.072 119.951 111.975 119.909L106.413 117.478C106.317 117.43 106.22 117.378 106.122 117.322C106.021 117.268 105.922 117.21 105.825 117.148C105.859 117.258 105.889 117.368 105.917 117.477C105.947 117.59 105.97 117.7 105.986 117.808L106.847 123.782C106.865 123.884 106.857 123.96 106.824 124.01C106.788 124.062 106.729 124.12 106.646 124.182L105.961 124.699Z" fill="#84B5C5"/>
<path d="M94.5274 122.302L94.0838 121.464L98.7514 118.958L102.822 126.531L98.1547 129.037L97.7058 128.202L101.348 126.246L99.9957 123.731L97.0461 125.315L96.6143 124.511L99.5639 122.928L98.1747 120.343L94.5274 122.302Z" fill="#84B5C5"/>
<path d="M78.7165 129.393L80.6739 132.591C80.7319 132.686 80.7949 132.797 80.8626 132.923C80.9311 133.052 80.999 133.19 81.0664 133.337C81.0908 133.003 81.1268 132.722 81.1745 132.494L81.8742 128.816L78.7165 129.393ZM75.7576 126.689L76.643 126.527C76.7453 126.508 76.8326 126.519 76.9049 126.558C76.9772 126.598 77.0363 126.654 77.0822 126.727L78.2466 128.625L82.0418 127.931L82.4591 125.745C82.4698 125.67 82.5035 125.598 82.5603 125.531C82.6172 125.464 82.6948 125.421 82.7931 125.403L83.6785 125.241L81.8435 134.317L80.6867 134.528L75.7576 126.689Z" fill="#84B5C5"/>
<path d="M72.4074 127.717C72.0759 127.735 71.7923 127.788 71.5568 127.877C71.3212 127.966 71.1312 128.082 70.9868 128.226C70.8386 128.375 70.7336 128.545 70.6719 128.736C70.6104 128.932 70.5858 129.143 70.5981 129.371C70.6221 129.814 70.7987 130.155 71.1281 130.394C71.4577 130.636 71.938 130.741 72.5691 130.707L74.4264 130.606L74.2647 127.617L72.4074 127.717ZM74.6296 134.363L74.4711 131.433L72.9374 131.516C72.6098 131.534 72.3282 131.585 72.0924 131.67C71.8527 131.755 71.6584 131.865 71.5095 132.002C71.3567 132.138 71.2472 132.298 71.181 132.482C71.1151 132.67 71.0879 132.872 71.0996 133.087C71.127 133.595 71.2988 133.956 71.6149 134.171C71.9312 134.39 72.4089 134.483 73.0479 134.448L74.6296 134.363ZM73.0975 135.365C72.5703 135.393 72.1142 135.366 71.7291 135.283C71.34 135.199 71.0185 135.069 70.7645 134.89C70.5065 134.712 70.312 134.486 70.181 134.213C70.0503 133.943 69.9755 133.635 69.9567 133.287C69.9453 133.076 69.9682 132.87 70.0255 132.671C70.079 132.476 70.1672 132.291 70.2899 132.116C70.4126 131.941 70.5722 131.78 70.7685 131.633C70.9611 131.491 71.1909 131.37 71.458 131.271C70.8204 131.186 70.3349 130.986 70.0014 130.671C69.6642 130.361 69.4811 129.938 69.4521 129.403C69.4325 129.039 69.4824 128.704 69.602 128.397C69.7176 128.091 69.8994 127.822 70.1474 127.593C70.3913 127.363 70.6978 127.178 71.0668 127.038C71.4359 126.902 71.8602 126.821 72.3395 126.795L75.3711 126.631L75.8355 135.217L73.0975 135.365Z" fill="#84B5C5"/>
<path d="M59.5596 130.494C59.6191 129.853 59.7754 129.273 60.0285 128.754C60.2812 128.239 60.6107 127.805 61.017 127.453C61.4232 127.101 61.8973 126.842 62.439 126.675C62.9764 126.512 63.5597 126.46 64.189 126.518C64.8183 126.577 65.382 126.736 65.8802 126.995C66.378 127.258 66.7942 127.6 67.1287 128.02C67.4633 128.441 67.7073 128.928 67.8609 129.48C68.0141 130.037 68.0609 130.636 68.0013 131.277C67.9418 131.918 67.7857 132.496 67.533 133.011C67.2799 133.53 66.9503 133.965 66.544 134.317C66.1373 134.673 65.6651 134.935 65.1274 135.102C64.5896 135.269 64.0061 135.323 63.3768 135.265C62.7475 135.206 62.1839 135.046 61.6861 134.783C61.1844 134.519 60.7664 134.175 60.4322 133.75C60.0977 133.33 59.8538 132.841 59.7006 132.284C59.5471 131.732 59.5 131.135 59.5596 130.494ZM60.7485 130.604C60.6997 131.13 60.7275 131.608 60.8321 132.04C60.9366 132.471 61.107 132.843 61.3433 133.154C61.5791 133.469 61.8771 133.722 62.237 133.912C62.597 134.102 63.008 134.218 63.47 134.261C63.928 134.304 64.3515 134.265 64.7403 134.144C65.1291 134.023 65.4704 133.83 65.7643 133.564C66.0538 133.302 66.2896 132.968 66.4719 132.563C66.6541 132.158 66.7696 131.693 66.8184 131.167C66.8672 130.641 66.8394 130.163 66.7348 129.731C66.6299 129.304 66.4595 128.932 66.2236 128.617C65.9834 128.306 65.6833 128.055 65.3234 127.865C64.963 127.679 64.5538 127.565 64.0958 127.522C63.6338 127.479 63.2085 127.516 62.8201 127.633C62.4313 127.753 62.0921 127.945 61.8026 128.207C61.5128 128.474 61.2769 128.807 61.095 129.208C60.9128 129.613 60.7973 130.078 60.7485 130.604Z" fill="#84B5C5"/>
<path d="M55.258 126.019C54.9127 125.933 54.5896 125.914 54.2888 125.962C53.988 126.01 53.7182 126.116 53.4794 126.279C53.2367 126.441 53.0304 126.655 52.8604 126.922C52.6865 127.187 52.5558 127.495 52.4682 127.844L51.1967 132.913L50.0734 132.631L51.3449 127.563C51.4656 127.081 51.6551 126.655 51.9135 126.282C52.168 125.909 52.4767 125.607 52.8398 125.376C53.198 125.149 53.6041 125.001 54.0582 124.933C54.5123 124.866 54.9954 124.896 55.5076 125.024C56.0198 125.153 56.4601 125.354 56.8285 125.627C57.197 125.901 57.4873 126.223 57.6995 126.594C57.9107 126.969 58.0424 127.381 58.0944 127.831C58.1426 128.28 58.1063 128.745 57.9856 129.227L56.7141 134.296L55.5908 134.014L56.8609 128.951C56.9485 128.602 56.9803 128.269 56.9563 127.954C56.9284 127.638 56.8476 127.352 56.7139 127.096C56.5763 126.838 56.3868 126.616 56.1454 126.427C55.8991 126.242 55.6033 126.106 55.258 126.019Z" fill="#84B5C5"/>
<path d="M42.4629 128.696L45.0547 129.713L47.8395 122.62L48.9176 123.043L46.1327 130.135L48.7301 131.154L48.3726 132.064L42.1055 129.606L42.4629 128.696Z" fill="#84B5C5"/>
<path d="M27.6614 120.631L32.6955 113.661L33.5227 114.258L29.8235 119.379C29.7744 119.448 29.72 119.519 29.6606 119.595C29.5979 119.668 29.534 119.743 29.469 119.819L35.0105 117.188C35.1905 117.096 35.3568 117.105 35.5092 117.215L35.6455 117.313C35.7979 117.423 35.8588 117.578 35.828 117.778L35.109 123.918C35.2136 123.732 35.3187 123.566 35.4241 123.42L39.1232 118.298L39.9504 118.895L34.9163 125.865L34.2205 125.363C34.1362 125.302 34.0772 125.247 34.0435 125.198C34.0098 125.15 33.9987 125.073 34.0104 124.968L34.7003 118.94C34.7176 118.834 34.7388 118.726 34.764 118.616C34.786 118.503 34.8124 118.392 34.8432 118.281C34.7475 118.345 34.6514 118.406 34.5548 118.465C34.4559 118.527 34.3572 118.581 34.2588 118.629L28.7992 121.208C28.7064 121.254 28.6314 121.269 28.5743 121.253C28.5139 121.234 28.4416 121.194 28.3572 121.133L27.6614 120.631Z" fill="#84B5C5"/>
<path d="M26.5937 109.072L27.2611 108.398L31.0489 112.102L25.0343 118.247L21.2465 114.542L21.9096 113.865L24.8652 116.755L26.8631 114.714L24.4695 112.374L25.1074 111.722L27.5011 114.063L29.5536 111.966L26.5937 109.072Z" fill="#84B5C5"/>
<path d="M15.1057 96.1631L12.6422 98.9889C12.5689 99.0728 12.4823 99.166 12.3826 99.2683C12.2793 99.3726 12.168 99.4788 12.0487 99.5869C12.3745 99.51 12.6535 99.4601 12.8856 99.4371L16.6046 99.0017L15.1057 96.1631ZM16.7971 92.5303L17.2174 93.3262C17.266 93.4181 17.2822 93.5045 17.2661 93.5854C17.25 93.6662 17.214 93.7395 17.1582 93.8051L15.6974 95.4847L17.4989 98.8963L19.7105 98.6386C19.7854 98.6263 19.8635 98.6371 19.9447 98.6711C20.026 98.7051 20.09 98.7663 20.1367 98.8547L20.557 99.6506L11.3468 100.622L10.7977 99.582L16.7971 92.5303Z" fill="#84B5C5"/>
<path d="M14.7929 89.6189C14.6774 89.3077 14.5422 89.0527 14.3875 88.8542C14.2327 88.6556 14.0651 88.5087 13.8847 88.4135C13.6992 88.3159 13.5057 88.266 13.3044 88.2639C13.0993 88.2631 12.8899 88.3024 12.6761 88.3816C12.2598 88.536 11.9866 88.8058 11.8565 89.191C11.7227 89.5777 11.7657 90.0672 11.9856 90.6597L12.6328 92.4035L15.4401 91.3627L14.7929 89.6189ZM9.10544 93.7113L11.8564 92.6914L11.322 91.2513C11.2079 90.9438 11.0753 90.6901 10.9243 90.4901C10.7719 90.2864 10.6085 90.1337 10.4342 90.0319C10.2585 89.9264 10.0731 89.8693 9.87787 89.8606C9.6789 89.8533 9.47816 89.8872 9.27563 89.9623C8.79931 90.1389 8.50528 90.4101 8.39352 90.7757C8.27802 91.1428 8.33161 91.6263 8.55429 92.2263L9.10544 93.7113ZM7.69355 92.5454C7.50983 92.0504 7.40062 91.6067 7.36591 91.2143C7.32982 90.8181 7.35933 90.4723 7.45446 90.1768C7.54819 89.8776 7.70615 89.6249 7.92832 89.4188C8.14675 89.2141 8.41911 89.0513 8.7454 88.9303C8.94418 88.8566 9.14728 88.8175 9.35472 88.8132C9.55701 88.8064 9.75989 88.8357 9.96334 88.9011C10.1668 88.9664 10.3678 89.0711 10.5663 89.2151C10.7596 89.3567 10.943 89.5404 11.1164 89.7662C11.009 89.132 11.056 88.609 11.2573 88.1973C11.4535 87.7833 11.8029 87.4831 12.3055 87.2968C12.6468 87.1703 12.9817 87.1186 13.3103 87.1418C13.6376 87.1613 13.9477 87.2553 14.2407 87.424C14.5323 87.5889 14.7997 87.8268 15.0431 88.1376C15.2827 88.4497 15.486 88.8308 15.653 89.2808L16.7094 92.1271L8.64762 95.1161L7.69355 92.5454Z" fill="#84B5C5"/>
<path d="M8.36462 78.4892C8.9943 78.3541 9.59455 78.3297 10.1654 78.4159C10.7323 78.503 11.2445 78.6877 11.7019 78.97C12.1594 79.2523 12.5487 79.627 12.8699 80.0941C13.1863 80.558 13.4109 81.0989 13.5436 81.7169C13.6762 82.3348 13.6935 82.9202 13.5954 83.4731C13.4933 84.0268 13.2917 84.5262 12.9904 84.9712C12.6891 85.4163 12.2978 85.7948 11.8166 86.1066C11.3314 86.4193 10.774 86.6432 10.1443 86.7783C9.5146 86.9133 8.91631 86.9373 8.3494 86.8503C7.77859 86.7641 7.26445 86.5798 6.80699 86.2974C6.34562 86.0159 5.95476 85.6436 5.6344 85.1805C5.31405 84.7174 5.08754 84.1769 4.95488 83.559C4.82221 82.941 4.8069 82.3552 4.90894 81.8015C5.01014 81.2439 5.21334 80.7421 5.51853 80.2962C5.81982 79.8511 6.21304 79.4722 6.69821 79.1595C7.17947 78.8477 7.73494 78.6242 8.36462 78.4892ZM8.61526 79.6566C8.099 79.7673 7.65065 79.9371 7.27022 80.166C6.88979 80.3948 6.58648 80.6685 6.36031 80.987C6.13022 81.3064 5.97837 81.6662 5.90477 82.0666C5.83116 82.4669 5.84306 82.8939 5.94046 83.3476C6.03702 83.7973 6.20103 84.1896 6.43249 84.5246C6.66395 84.8595 6.95056 85.1273 7.29233 85.3281C7.62934 85.5258 8.01829 85.651 8.45918 85.7038C8.90007 85.7565 9.37864 85.7275 9.8949 85.6167C10.4112 85.506 10.8595 85.3362 11.2399 85.1073C11.6165 84.8793 11.9198 84.6056 12.1499 84.2863C12.3752 83.9638 12.5247 83.6025 12.5983 83.2021C12.668 82.8026 12.6545 82.378 12.558 81.9283C12.4606 81.4746 12.2981 81.0799 12.0705 80.7441C11.8391 80.4092 11.5548 80.1429 11.2178 79.9452C10.8769 79.7483 10.488 79.6231 10.051 79.5695C9.61009 79.5168 9.13152 79.5458 8.61526 79.6566Z" fill="#84B5C5"/>
<path d="M11.3219 72.9823C11.3013 72.6269 11.223 72.3129 11.087 72.0403C10.951 71.7677 10.7696 71.5418 10.5429 71.3626C10.3159 71.1794 10.0498 71.0466 9.74448 70.9641C9.43896 70.8776 9.1065 70.8448 8.74711 70.8656L3.52985 71.1678L3.46283 70.0117L8.68009 69.7096C9.17526 69.6809 9.63912 69.7342 10.0717 69.8694C10.504 70.0006 10.8845 70.2049 11.2131 70.4824C11.5374 70.7561 11.7998 71.0995 12 71.5126C12.2002 71.9257 12.3156 72.3959 12.3462 72.923C12.3768 73.4501 12.3165 73.9304 12.1653 74.3638C12.0141 74.7973 11.7934 75.1707 11.503 75.484C11.2087 75.7976 10.8545 76.0464 10.4404 76.2307C10.0262 76.4109 9.57146 76.5154 9.07629 76.5441L3.85903 76.8462L3.79202 75.6902L9.00328 75.3884C9.36268 75.3676 9.68924 75.2986 9.98295 75.1814C10.2764 75.0602 10.5254 74.8975 10.73 74.6934C10.9343 74.4852 11.0902 74.2378 11.1978 73.9511C11.3011 73.6606 11.3425 73.3377 11.3219 72.9823Z" fill="#84B5C5"/>
<path d="M4.91764 61.51L4.72438 64.2873L12.326 64.8157L12.2456 65.9709L4.64399 65.4425L4.45031 68.2257L3.47466 68.1579L3.942 61.4422L4.91764 61.51Z" fill="#84B5C5"/>
<path d="M8.19 44.7791L16.3483 47.4936L16.0259 48.4613L10.0311 46.4666C9.95137 46.4401 9.8666 46.4098 9.77678 46.3757C9.68821 46.3378 9.59775 46.2993 9.5054 46.2601L13.6736 50.7581C13.8153 50.9022 13.8565 51.0635 13.7971 51.2418L13.744 51.4012C13.6846 51.5796 13.555 51.684 13.3551 51.7145L7.27947 52.8673C7.48821 52.9114 7.67798 52.9619 7.84877 53.0188L13.8436 55.0134L13.5213 55.9812L5.36306 53.2667L5.63419 52.4526C5.66705 52.354 5.70182 52.2812 5.7385 52.2344C5.77517 52.1876 5.84537 52.154 5.9491 52.1338L11.909 50.9867C12.0152 50.9714 12.1246 50.9594 12.2372 50.9505C12.3511 50.9378 12.4656 50.9295 12.5807 50.9256C12.4908 50.8536 12.4035 50.7803 12.3188 50.7057C12.2302 50.6298 12.1486 50.5521 12.0739 50.4725L7.97971 46.037C7.90759 45.9624 7.87088 45.8954 7.8696 45.836C7.86959 45.7727 7.88601 45.6918 7.91887 45.5931L8.19 44.7791Z" fill="#84B5C5"/>
<path d="M18.938 40.2677L19.7786 40.706L17.3569 45.4182L9.70802 41.4913L12.1297 36.7791L12.9731 37.2121L11.0834 40.8889L13.6242 42.1933L15.1545 39.2156L15.9658 39.6321L14.4355 42.6099L17.0456 43.9499L18.938 40.2677Z" fill="#84B5C5"/>
<path d="M27.876 25.4648L24.4471 23.9463C24.3452 23.901 24.2306 23.8459 24.1033 23.7809C23.9732 23.713 23.8388 23.6381 23.7002 23.5561C23.8699 23.8445 24.0001 24.0962 24.0906 24.3111L25.6056 27.734L27.876 25.4648ZM31.8481 26.0077L31.2116 26.6439C31.138 26.7174 31.0602 26.7584 30.9782 26.7669C30.8961 26.7754 30.8155 26.7627 30.7363 26.7287L28.6993 25.8295L25.9706 28.5569L26.8702 30.5928C26.9042 30.6607 26.9169 30.7384 26.9084 30.8261C26.8999 30.9138 26.8603 30.9929 26.7896 31.0636L26.153 31.6999L22.5034 23.1913L23.3352 22.3599L31.8481 26.0077Z" fill="#84B5C5"/>
<path d="M33.9987 23.2447C34.2614 23.0417 34.4645 22.8368 34.6079 22.6299C34.7513 22.4231 34.8415 22.2194 34.8786 22.0189C34.9164 21.8128 34.9063 21.6134 34.8482 21.4206C34.7878 21.2247 34.6878 21.0366 34.5483 20.8562C34.2766 20.505 33.9375 20.3248 33.5308 20.3155C33.1217 20.303 32.6671 20.49 32.1669 20.8764L30.6951 22.0136L32.5268 24.3819L33.9987 23.2447ZM28.3935 19.0378L30.1885 21.3587L31.404 20.4196C31.6635 20.219 31.8663 20.0169 32.0121 19.8132C32.1611 19.6071 32.2582 19.4057 32.3034 19.2091C32.3517 19.01 32.3508 18.816 32.3008 18.6272C32.2484 18.4352 32.1561 18.2537 32.024 18.0829C31.7132 17.681 31.3665 17.4813 30.984 17.4836C30.5991 17.4828 30.1534 17.6781 29.647 18.0694L28.3935 19.0378ZM29.0853 17.3432C29.5031 17.0204 29.8942 16.784 30.2585 16.6339C30.626 16.4814 30.965 16.4065 31.2756 16.4091C31.5893 16.4094 31.8777 16.4848 32.1408 16.6354C32.4015 16.7828 32.6382 16.9941 32.8511 17.2694C32.9808 17.4371 33.0787 17.6192 33.1448 17.8158C33.2117 18.0068 33.2442 18.2091 33.2426 18.4227C33.2409 18.6363 33.201 18.8593 33.1227 19.0916C33.0452 19.3183 32.9245 19.548 32.7607 19.7807C33.3342 19.4893 33.8476 19.3782 34.3008 19.4476C34.7546 19.5114 35.1455 19.7553 35.4735 20.1793C35.6962 20.4672 35.8455 20.7714 35.9214 21.0919C36.0005 21.4099 36.0032 21.7338 35.9296 22.0636C35.8592 22.391 35.7119 22.7171 35.4878 23.0419C35.2612 23.3636 34.958 23.6711 34.5782 23.9646L32.1758 25.8208L26.9155 19.0197L29.0853 17.3432Z" fill="#84B5C5"/>
<path d="M42.6714 13.7971C42.9888 14.3574 43.1918 14.9228 43.2804 15.4931C43.367 16.0599 43.3441 16.6038 43.2115 17.1246C43.079 17.6454 42.838 18.1288 42.4884 18.5748C42.1403 19.0153 41.6912 19.3912 41.1412 19.7025C40.5911 20.0137 40.0376 20.2052 39.4805 20.2768C38.9215 20.345 38.3845 20.3018 37.8695 20.1475C37.3545 19.9931 36.8762 19.7329 36.4344 19.367C35.9908 18.9976 35.6102 18.5327 35.2928 17.9724C34.9754 17.412 34.7734 16.8485 34.6867 16.2816C34.5981 15.7113 34.6201 15.1657 34.7526 14.6449C34.8832 14.1206 35.1215 13.6365 35.4676 13.1924C35.8137 12.7484 36.2618 12.3708 36.8118 12.0595C37.3619 11.7483 37.9164 11.5585 38.4754 11.4904C39.0379 11.4203 39.5777 11.4642 40.0946 11.622C40.6096 11.7764 41.089 12.0383 41.5327 12.4077C41.9744 12.7736 42.354 13.2367 42.6714 13.7971ZM41.6322 14.3851C41.372 13.9257 41.0757 13.5487 40.7434 13.2542C40.411 12.9597 40.059 12.7521 39.6873 12.6316C39.3136 12.5075 38.9247 12.4702 38.5206 12.5196C38.1165 12.5691 37.7125 12.7081 37.3087 12.9366C36.9083 13.1631 36.583 13.4368 36.3326 13.7578C36.0822 14.0787 35.9124 14.4321 35.8231 14.8182C35.7353 15.1988 35.7322 15.6073 35.8139 16.0437C35.8955 16.48 36.0665 16.9279 36.3267 17.3873C36.587 17.8467 36.8833 18.2237 37.2156 18.5182C37.5459 18.8093 37.898 19.0168 38.2716 19.1409C38.6468 19.2595 39.0365 19.2941 39.4406 19.2446C39.8428 19.1917 40.244 19.052 40.6444 18.8254C41.0482 18.5969 41.3763 18.3239 41.6286 18.0065C41.879 17.6856 42.048 17.3348 42.1359 16.9542C42.2217 16.5702 42.2248 16.1617 42.1451 15.7288C42.0634 15.2924 41.8924 14.8445 41.6322 14.3851Z" fill="#84B5C5"/>
<path d="M48.7174 14.9994C49.0502 14.8732 49.3263 14.7043 49.5455 14.4928C49.7647 14.2813 49.9257 14.0406 50.0285 13.7706C50.1351 13.4991 50.1819 13.2054 50.1689 12.8895C50.1597 12.5721 50.0912 12.2452 49.9634 11.9086L48.1083 7.02297L49.191 6.61228L51.0461 11.4979C51.2222 11.9616 51.3107 12.4201 51.3116 12.8732C51.3162 13.3249 51.2355 13.7491 51.0695 14.1457C50.9058 14.5372 50.657 14.8905 50.3231 15.2054C49.9891 15.5203 49.5753 15.7714 49.0816 15.9586C48.5879 16.1459 48.1116 16.2324 47.6527 16.2183C47.1938 16.2041 46.7713 16.1055 46.3852 15.9226C45.9977 15.7359 45.6539 15.4727 45.3538 15.1331C45.0574 14.792 44.8212 14.3896 44.6451 13.9259L42.79 9.04027L43.8727 8.62958L45.7257 13.5096C45.8535 13.8462 46.0174 14.137 46.2174 14.382C46.4211 14.6255 46.6511 14.8142 46.9073 14.9481C47.1672 15.0805 47.4501 15.155 47.7559 15.1716C48.064 15.1831 48.3845 15.1257 48.7174 14.9994Z" fill="#84B5C5"/>
<path d="M57.6234 5.46923L54.9153 6.1151L56.6848 13.5268L55.5584 13.7954L53.7889 6.38374L51.075 7.03101L50.8479 6.07974L57.3962 4.51796L57.6234 5.46923Z" fill="#84B5C5"/>
<path d="M74.4645 3.55684L74.3319 12.1538L73.312 12.1381L73.4094 5.82081C73.4107 5.73682 73.4141 5.64686 73.4196 5.55093C73.4291 5.45507 73.4386 5.3572 73.4481 5.25734L70.4136 10.5871C70.3188 10.7656 70.1774 10.8535 69.9894 10.8505L69.8215 10.8479C69.6335 10.845 69.4949 10.7529 69.4057 10.5715L66.4773 5.12558C66.498 5.33792 66.507 5.53408 66.5042 5.71406L66.4068 12.0313L65.3869 12.0155L65.5195 3.41857L66.3774 3.43183C66.4814 3.43344 66.5612 3.44467 66.6169 3.46553C66.6726 3.4864 66.7257 3.54323 66.7763 3.63602L69.6644 8.9733C69.7109 9.07003 69.7553 9.17073 69.7977 9.27539C69.8441 9.38012 69.8865 9.48679 69.9248 9.5954C69.9664 9.48803 70.0101 9.38269 70.0557 9.27938C70.1013 9.17207 70.1509 9.07083 70.2044 8.97564L73.2016 3.73534C73.251 3.6441 73.3038 3.58891 73.3601 3.56977C73.4204 3.5507 73.5026 3.54197 73.6066 3.54358L74.4645 3.55684Z" fill="#84B5C5"/>
<path d="M82.3268 12.4644L82.161 13.3978L76.9387 12.5053L78.3885 4.03044L83.6108 4.9229L83.451 5.85733L79.3761 5.16094L78.8945 7.97605L82.1946 8.54003L82.0409 9.43897L78.7407 8.87499L78.246 11.767L82.3268 12.4644Z" fill="#84B5C5"/>
<path d="M99.016 16.4906L99.4416 12.7659C99.4544 12.6552 99.4728 12.5294 99.4968 12.3885C99.5228 12.2441 99.5542 12.0935 99.591 11.9368C99.3664 12.1849 99.165 12.3843 98.9868 12.5349L96.1713 15.0034L99.016 16.4906ZM99.6842 20.4417L98.8866 20.0248C98.7944 19.9766 98.732 19.9146 98.6994 19.8389C98.6668 19.7632 98.6549 19.6825 98.6636 19.5968L98.9137 17.3849L95.4947 15.5975L93.8196 17.0644C93.765 17.1171 93.6945 17.1525 93.6083 17.1706C93.5221 17.1887 93.4347 17.1746 93.346 17.1283L92.5485 16.7113L99.5818 10.6862L100.624 11.231L99.6842 20.4417Z" fill="#84B5C5"/>
<path d="M103.036 21.7056C103.308 21.8959 103.564 22.0287 103.804 22.104C104.045 22.1793 104.266 22.2048 104.469 22.1805C104.677 22.1553 104.864 22.0863 105.031 21.9735C105.2 21.8575 105.35 21.7062 105.481 21.5194C105.736 21.1557 105.807 20.7784 105.695 20.3876C105.585 19.9935 105.271 19.6153 104.753 19.2531L103.229 18.1869L101.512 20.6395L103.036 21.7056ZM105.387 15.1053L103.704 17.5087L104.963 18.3891C105.231 18.5771 105.485 18.7104 105.723 18.789C105.964 18.8698 106.185 18.9026 106.387 18.8871C106.591 18.874 106.776 18.8155 106.942 18.7116C107.109 18.6044 107.255 18.4624 107.379 18.2854C107.671 17.8693 107.758 17.4791 107.642 17.1148C107.528 16.7472 107.209 16.38 106.685 16.0132L105.387 15.1053ZM107.211 15.2612C107.644 15.5638 107.986 15.8667 108.238 16.1697C108.493 16.475 108.665 16.7762 108.755 17.0733C108.848 17.3727 108.862 17.6704 108.797 17.9662C108.733 18.2588 108.602 18.5476 108.402 18.8327C108.281 19.0063 108.136 19.154 107.968 19.2755C107.805 19.3961 107.622 19.4874 107.417 19.5494C107.213 19.6113 106.988 19.6395 106.743 19.634C106.503 19.6275 106.248 19.5807 105.977 19.4936C106.426 19.9542 106.684 20.411 106.753 20.8641C106.827 21.3162 106.71 21.7618 106.403 22.2008C106.194 22.499 105.948 22.732 105.664 22.8998C105.384 23.0699 105.076 23.1689 104.739 23.1968C104.405 23.227 104.05 23.1835 103.673 23.0663C103.298 22.9458 102.914 22.7479 102.521 22.4728L100.033 20.7327L104.965 13.6896L107.211 15.2612Z" fill="#84B5C5"/>
<path d="M114.629 27.1447C114.189 27.6146 113.71 27.9768 113.191 28.2314C112.676 28.4831 112.15 28.6234 111.613 28.6523C111.076 28.6812 110.543 28.5954 110.012 28.3949C109.488 28.1942 108.995 27.8779 108.533 27.4459C108.072 27.014 107.724 26.543 107.489 26.0329C107.257 25.52 107.138 24.9948 107.132 24.4574C107.126 23.9201 107.232 23.3862 107.449 22.8556C107.669 22.3222 108 21.8205 108.44 21.3506C108.881 20.8807 109.358 20.5199 109.874 20.2682C110.392 20.0136 110.92 19.8719 111.456 19.843C111.996 19.8112 112.53 19.8942 113.057 20.0919C113.584 20.2897 114.078 20.6046 114.54 21.0365C115.001 21.4684 115.348 21.9409 115.58 22.4539C115.815 22.9696 115.934 23.4976 115.937 24.0378C115.944 24.5752 115.837 25.1106 115.616 25.644C115.399 26.1745 115.07 26.6748 114.629 27.1447ZM113.758 26.3287C114.119 25.9434 114.39 25.5483 114.572 25.1434C114.754 24.7386 114.848 24.3408 114.852 23.9503C114.859 23.5568 114.778 23.1746 114.61 22.8039C114.443 22.4331 114.189 22.0891 113.851 21.772C113.515 21.4576 113.156 21.2289 112.775 21.0857C112.394 20.9426 112.006 20.886 111.61 20.9159C111.221 20.9456 110.83 21.0645 110.437 21.2725C110.045 21.4806 109.668 21.7772 109.307 22.1625C108.946 22.5478 108.675 22.9429 108.493 23.3477C108.313 23.7497 108.22 24.1474 108.213 24.5409C108.212 24.9342 108.295 25.3163 108.463 25.687C108.634 26.0549 108.887 26.3961 109.223 26.7104C109.561 27.0275 109.92 27.2591 110.298 27.4052C110.68 27.5483 111.065 27.605 111.455 27.5753C111.847 27.5427 112.238 27.4238 112.628 27.2186C113.02 27.0106 113.397 26.7139 113.758 26.3287Z" fill="#84B5C5"/>
<path d="M115.43 33.4262C115.65 33.7062 115.893 33.9193 116.161 34.0654C116.428 34.2116 116.706 34.2935 116.995 34.3112C117.286 34.3321 117.58 34.2893 117.878 34.1828C118.178 34.0794 118.47 33.9167 118.753 33.6945L122.865 30.4692L123.58 31.38L119.468 34.6053C119.078 34.9114 118.667 35.1324 118.234 35.2682C117.804 35.4072 117.375 35.4566 116.947 35.4163C116.524 35.3767 116.113 35.2445 115.712 35.0196C115.312 34.7947 114.949 34.4747 114.623 34.0594C114.297 33.6441 114.072 33.2154 113.949 32.7733C113.825 32.3312 113.793 31.8987 113.853 31.4758C113.916 31.0504 114.064 30.644 114.299 30.2564C114.536 29.8721 114.85 29.5268 115.241 29.2207L119.353 25.9954L120.068 26.9062L115.96 30.1278C115.677 30.35 115.448 30.593 115.274 30.8568C115.102 31.1237 114.991 31.3994 114.939 31.6837C114.89 31.9711 114.903 32.2633 114.979 32.56C115.06 32.8574 115.21 33.1462 115.43 33.4262Z" fill="#84B5C5"/>
<path d="M127.229 39.186L125.803 36.7945L119.256 40.6929L118.663 39.6982L125.21 35.7998L123.782 33.4032L124.622 32.9029L128.069 38.6856L127.229 39.186Z" fill="#84B5C5"/>
<path d="M133.962 54.3314L125.726 56.7983L125.433 55.8213L131.485 54.0085C131.566 53.9844 131.653 53.9605 131.746 53.9368C131.84 53.9169 131.936 53.8965 132.034 53.8754L126.037 52.5903C125.838 52.5538 125.711 52.4455 125.657 52.2654L125.609 52.1045C125.555 51.9244 125.601 51.7645 125.747 51.6247L130.055 47.1902C129.859 47.2741 129.675 47.3418 129.502 47.3934L123.45 49.2062L123.157 48.2292L131.393 45.7622L131.64 46.5841C131.67 46.6837 131.683 46.7632 131.68 46.8226C131.677 46.882 131.639 46.9498 131.565 47.026L127.349 51.3892C127.271 51.4628 127.188 51.5355 127.101 51.6075C127.015 51.6833 126.926 51.7559 126.834 51.8252C126.949 51.8325 127.063 51.8423 127.175 51.8546C127.291 51.8658 127.403 51.8825 127.51 51.9048L133.411 53.1813C133.513 53.2008 133.581 53.2346 133.617 53.2825C133.653 53.3342 133.686 53.4099 133.716 53.5095L133.962 54.3314Z" fill="#84B5C5"/>
<path d="M127.769 64.18L126.83 64.305L126.097 59.0579L134.613 57.87L135.345 63.1171L134.406 63.248L133.835 59.1538L131.006 59.5484L131.469 62.8642L130.566 62.9902L130.103 59.6744L127.197 60.0797L127.769 64.18Z" fill="#84B5C5"/>
</svg>
