<svg width="170" height="156" viewBox="0 0 170 156" fill="none" xmlns="http://www.w3.org/2000/svg">
<path d="M143.497 31.2445L161.27 23.2465C165.75 21.3296 173.168 12.3402 163.253 1.5L128.808 18.0247M161.27 23.2465C161.27 23.2465 174.71 38.7136 143.497 51.0741" stroke="#84B5C5" stroke-width="3" stroke-linecap="round" stroke-linejoin="round"/>
<path d="M40.6754 18.0247L6.23054 1.5C-3.39051 12.3402 3.95381 21.1974 8.21351 23.2465M8.21351 23.2465L25.9867 31.2445M8.21351 23.2465C8.21351 23.2465 -5.22659 38.7136 25.9867 51.0741" stroke="#84B5C5" stroke-width="3" stroke-linecap="round" stroke-linejoin="round"/>
<path d="M48.0206 1.5H121.464C121.464 1.5 128.808 1.5 128.808 8.10988V54.379C128.808 54.379 128.808 60.9889 121.464 60.9889H48.0206C48.0206 60.9889 40.6763 60.9889 40.6763 54.379V8.10988C40.6763 8.10988 40.6763 1.5 48.0206 1.5Z" stroke="#84B5C5" stroke-width="3" stroke-linecap="round" stroke-linejoin="round"/>
<path d="M43.1733 3.15625L80.3355 28.2738C81.6068 29.1319 83.153 29.5958 84.7421 29.5958C86.3312 29.5958 87.8775 29.1319 89.1487 28.2738L126.311 3.15625" stroke="#84B5C5" stroke-width="3" stroke-linecap="round" stroke-linejoin="round"/>
<path d="M84.7417 94.0391V153.528" stroke="#84B5C5" stroke-width="3" stroke-linecap="round" stroke-linejoin="round"/>
<path d="M62.7085 80.8203V127.09" stroke="#84B5C5" stroke-width="3" stroke-linecap="round" stroke-linejoin="round"/>
<path d="M106.775 80.8203V127.09" stroke="#84B5C5" stroke-width="3" stroke-linecap="round" stroke-linejoin="round"/>
</svg>
