<svg width="80" height="80" viewBox="0 0 80 80" fill="none" xmlns="http://www.w3.org/2000/svg">
<path d="M73.923 8.33969V71.6629C73.923 72.9119 72.9105 73.9244 71.6614 73.9244H8.33823C7.08916 73.9244 6.07666 72.9119 6.07666 71.6629V8.33969C6.07666 7.09063 7.08916 6.07812 8.33823 6.07812H71.6614C72.9105 6.07812 73.923 7.09063 73.923 8.33969Z" stroke="#84B5C5" stroke-width="3" stroke-linecap="round" stroke-linejoin="round"/>
<path d="M32.4616 58.8488H29.9488C25.7854 58.8488 22.4104 55.4741 22.4104 51.311V44.1906C22.4104 42.0966 17.3848 40.0025 17.3848 40.0025C17.3848 40.0025 22.4104 37.9085 22.4104 35.8144V28.6947C22.4104 24.5313 25.7854 21.1562 29.9488 21.1562H32.4616" stroke="#84B5C5" stroke-width="3" stroke-linecap="round" stroke-linejoin="round"/>
<path d="M47.5386 58.8488H50.0514C54.2145 58.8488 57.5901 55.4741 57.5901 51.311V44.1906C57.5901 42.0966 62.6154 40.0025 62.6154 40.0025C62.6154 40.0025 57.5901 37.9084 57.5901 35.8144V28.6947C57.5901 24.5313 54.2148 21.1562 50.0517 21.1562H47.5386" stroke="#84B5C5" stroke-width="3" stroke-linecap="round" stroke-linejoin="round"/>
</svg>
