<svg width="80" height="80" viewBox="0 0 80 80" fill="none" xmlns="http://www.w3.org/2000/svg">
<path d="M29.0238 61.9447C29.0238 62.8107 28.3218 63.5127 27.4558 63.5127H14.9118C13.7047 63.5127 12.9504 62.2061 13.5539 61.1607C13.834 60.6756 14.3516 60.3767 14.9118 60.3767H27.4558C28.3218 60.3767 29.0238 61.0788 29.0238 61.9447ZM27.4558 47.8327H14.9118C13.7047 47.8327 12.9504 49.1394 13.5539 50.1847C13.834 50.6698 14.3516 50.9687 14.9118 50.9687H27.4558C28.6629 50.9686 29.4173 49.662 28.8137 48.6166C28.5336 48.1316 28.016 47.8327 27.4558 47.8327ZM79.1998 27.4487V71.3527C79.1998 73.9506 77.0937 76.0566 74.4958 76.0567H5.50381C2.90593 76.0566 0.799805 73.9506 0.799805 71.3527V24.3127C0.803461 23.6234 1.2568 23.0174 1.91699 22.8192L64.637 4.00321C65.8008 3.68299 66.8748 4.74271 66.5702 5.91071C66.4354 6.42768 66.0466 6.84043 65.5386 7.00593L13.0498 22.7447H74.4958C77.0937 22.7447 79.1998 24.8508 79.1998 27.4487ZM76.0638 27.4487C76.0638 26.5828 75.3618 25.8807 74.4958 25.8807H3.9358V71.3527C3.9358 72.2187 4.63781 72.9207 5.50381 72.9207H74.4958C75.3618 72.9207 76.0638 72.2187 76.0638 71.3527V27.4487ZM66.6558 49.4007C66.6558 60.2641 54.8958 67.0538 45.4878 61.6221C36.0798 56.1904 36.0798 42.6111 45.4878 37.1794C47.6331 35.9408 50.0666 35.2887 52.5438 35.2887C60.3376 35.2887 66.6558 41.6069 66.6558 49.4007ZM63.5198 49.4007C63.5198 40.9514 54.3731 35.6706 47.0558 39.8952C39.7385 44.1199 39.7385 54.6816 47.0558 58.9062C48.7244 59.8696 50.6171 60.3767 52.5438 60.3767C58.6057 60.3767 63.5198 55.4626 63.5198 49.4007ZM27.4558 35.2887H14.9118C13.7047 35.2887 12.9504 36.5954 13.5539 37.6407C13.834 38.1258 14.3516 38.4247 14.9118 38.4247H27.4558C28.6629 38.4246 29.4173 37.118 28.8137 36.0726C28.5336 35.5875 28.016 35.2887 27.4558 35.2887Z" fill="#84B5C5"/>
</svg>
