<svg width="80" height="80" viewBox="0 0 80 80" fill="none" xmlns="http://www.w3.org/2000/svg">
<g clip-path="url(#clip0_1847_5458)">
<path d="M40.4289 18.7351C38.5536 16.8598 37.5 14.3162 37.5 11.6641C37.5 9.0119 38.5536 6.46836 40.4289 4.59299C42.3043 2.71763 44.8478 1.66406 47.5 1.66406C50.1522 1.66406 52.6957 2.71763 54.5711 4.59299C56.4464 6.46836 57.5 9.0119 57.5 11.6641C57.5 14.3162 56.4464 16.8598 54.5711 18.7351C52.6957 20.6105 50.1522 21.6641 47.5 21.6641C44.8478 21.6641 42.3043 20.6105 40.4289 18.7351Z" stroke="#84B5C5" stroke-width="3" stroke-linecap="round" stroke-linejoin="round"/>
<path d="M40.0001 53.8318L38.3334 57.9984M38.3334 57.9984L44.4667 75.0318C44.9744 76.1884 45.9009 77.1101 47.0603 77.6115C48.2196 78.113 49.5258 78.157 50.7163 77.7349C51.9068 77.3127 52.8934 76.4556 53.4778 75.3358C54.0623 74.216 54.2012 72.9165 53.8667 71.6984L44.8667 46.6651C44.1042 44.5083 44.1042 42.1552 44.8667 39.9984L47.2001 33.3318C47.5345 32.1137 47.3956 30.8142 46.8112 29.6944C46.2267 28.5746 45.2401 27.7175 44.0496 27.2953C42.8591 26.8732 41.553 26.9172 40.3936 27.4187C39.2343 27.9201 38.3077 28.8418 37.8001 29.9984L22.8001 71.6651C22.4656 72.8831 22.6045 74.1827 23.189 75.3025C23.7734 76.4223 24.76 77.2794 25.9505 77.7015C27.141 78.1237 28.4472 78.0796 29.6065 77.5782C30.7658 77.0767 31.6924 76.1551 32.2001 74.9984L38.3334 57.9984Z" stroke="#84B5C5" stroke-width="3" stroke-linecap="round" stroke-linejoin="round"/>
</g>
<defs>
<clipPath id="clip0_1847_5458">
<rect width="80" height="80" fill="white"/>
</clipPath>
</defs>
</svg>
