<svg width="80" height="80" viewBox="0 0 80 80" fill="none" xmlns="http://www.w3.org/2000/svg">
<path d="M60.8124 38.3625L53.7446 59.565C53.5152 60.2537 52.9639 60.7875 52.2677 60.9944L8.9508 73.8722C7.22487 74.385 5.6358 72.7434 6.20518 71.0353L20.2692 28.8434C20.4736 28.2297 20.9352 27.7353 21.5333 27.489L41.5142 19.2615C42.3452 18.9193 43.3005 19.1103 43.9358 19.7456L60.2746 36.0847C60.8705 36.6809 61.0789 37.5628 60.8124 38.3625Z" stroke="#84B5C5" stroke-width="3" stroke-linecap="round" stroke-linejoin="round"/>
<path d="M7.47607 72.4663L31.083 48.8594" stroke="#84B5C5" stroke-width="3" stroke-linecap="round" stroke-linejoin="round"/>
<path d="M61.2473 37.0569L71.7395 26.5651C74.6367 23.6676 74.6367 18.9704 71.7395 16.0732L63.8708 8.20414C60.9733 5.30695 56.2761 5.30695 53.3786 8.20414L42.8867 18.696" stroke="#84B5C5" stroke-width="3" stroke-linecap="round" stroke-linejoin="round"/>
<path d="M38.953 40.989C36.7799 38.8162 33.2568 38.8162 31.0839 40.989C28.9108 43.1621 28.9108 46.6852 31.0839 48.858C33.2568 51.0309 36.7799 51.0309 38.953 48.858C41.1255 46.6852 41.1255 43.1621 38.953 40.989Z" stroke="#84B5C5" stroke-width="3" stroke-linecap="round" stroke-linejoin="round"/>
</svg>
