<svg width="50" height="50" viewBox="0 0 50 50" fill="none" xmlns="http://www.w3.org/2000/svg">
<path d="M20.833 24.9948C20.833 26.0999 21.272 27.1597 22.0534 27.9411C22.8348 28.7225 23.8946 29.1615 24.9997 29.1615C26.1047 29.1615 27.1645 28.7225 27.946 27.9411C28.7274 27.1597 29.1663 26.0999 29.1663 24.9948C29.1663 23.8897 28.7274 22.8299 27.946 22.0485C27.1645 21.2671 26.1047 20.8281 24.9997 20.8281C23.8946 20.8281 22.8348 21.2671 22.0534 22.0485C21.272 22.8299 20.833 23.8897 20.833 24.9948Z" stroke="#84B5C5" stroke-width="2" stroke-linecap="round" stroke-linejoin="round"/>
<path d="M13.542 12.6735L23.5274 2.6881C23.9181 2.29753 24.4479 2.07812 25.0003 2.07812C25.5527 2.07812 26.0826 2.29753 26.4732 2.6881L36.4587 12.6735" stroke="#84B5C5" stroke-width="2" stroke-linecap="round" stroke-linejoin="round"/>
<path d="M13.542 37.3203L23.5274 47.3057C23.9181 47.6963 24.4479 47.9157 25.0003 47.9157C25.5527 47.9157 26.0826 47.6963 26.4732 47.3057L36.4587 37.3203" stroke="#84B5C5" stroke-width="2" stroke-linecap="round" stroke-linejoin="round"/>
</svg>
