<svg width="80" height="80" viewBox="0 0 80 80" fill="none" xmlns="http://www.w3.org/2000/svg">
<path d="M73.4578 12.3566C65.8032 4.72758 53.4198 4.72758 45.7652 12.3566L40.006 17.6984L34.2468 12.3384C23.5739 1.67674 5.36173 6.5669 1.46486 21.1407C-0.343675 27.9045 1.59358 35.1193 6.54689 40.0674L38.9717 72.9676C39.5404 73.5451 40.4716 73.5451 41.0402 72.9676L73.4578 40.0746C81.1137 32.4212 81.1137 20.01 73.4578 12.3566ZM71.4002 38.0279L40.006 69.8794L8.60451 38.0207C-0.483018 28.9331 3.67479 13.4159 16.0886 10.0896C21.8499 8.5459 27.997 10.1931 32.2146 14.4106L32.2509 14.4469L39.0153 20.7468C39.573 21.2676 40.4389 21.2676 40.9967 20.7468L47.7611 14.4469L47.7974 14.4106C56.7006 5.14405 72.2964 8.99049 75.8698 21.3341C77.5968 27.2996 75.8694 33.7307 71.3857 38.0279H71.4002Z" fill="#84B5C5"/>
</svg>
