<svg width="154" height="51" viewBox="0 0 154 51" fill="none" xmlns="http://www.w3.org/2000/svg">
<path d="M152.75 0.998129C152.728 13.9811 118.689 24.4463 76.7135 24.3806C34.7381 24.315 0.728088 13.733 0.750011 0.75" stroke="#DDDDDD" stroke-width="1.5" stroke-miterlimit="10" stroke-linecap="round"/>
<path d="M0.75 24.366C0.75 11.3903 34.7746 0.859375 76.75 0.859375C118.725 0.859375 152.75 11.383 152.75 24.366" stroke="#BDE0EB" stroke-width="1.5" stroke-miterlimit="10" stroke-linecap="round"/>
<path d="M5.80615 46.6657V33.9688H10.3669C11.1051 33.9688 11.7337 34.0491 12.2599 34.1952C12.7862 34.3486 13.2174 34.5678 13.5463 34.8454C13.8752 35.123 14.1237 35.4664 14.2772 35.8609C14.4307 36.2554 14.5037 36.6864 14.5037 37.1539C14.5037 37.6215 14.4453 37.9868 14.3283 38.3082C14.2114 38.6297 14.0579 38.9 13.8752 39.1191C13.6925 39.3383 13.4732 39.5063 13.232 39.6305C12.9908 39.7547 12.7423 39.8424 12.4865 39.8862V39.9227C13.3636 40.0542 14.014 40.3976 14.438 40.9674C14.8619 41.5299 15.0811 42.2386 15.0811 43.086C15.0811 43.7435 14.9788 44.306 14.7742 44.759C14.5695 45.2192 14.2845 45.5845 13.9263 45.8694C13.5609 46.1543 13.1297 46.3516 12.618 46.4757C12.1064 46.5999 11.5583 46.6584 10.9589 46.6584H5.80615V46.6657ZM6.9975 39.5794H10.0161C10.6373 39.5794 11.1563 39.5282 11.5729 39.4186C11.9968 39.3164 12.333 39.1556 12.5888 38.9511C12.8446 38.7465 13.0273 38.4908 13.1443 38.1913C13.2539 37.8918 13.3124 37.5484 13.3124 37.1612C13.3124 36.7741 13.2466 36.4234 13.1224 36.1458C12.9981 35.8682 12.7862 35.649 12.5084 35.4737C12.2307 35.3057 11.8652 35.1815 11.4121 35.1011C10.9589 35.028 10.4108 34.9842 9.75296 34.9842H6.9975V39.5721V39.5794ZM6.9975 45.6429H10.0307C10.6885 45.6429 11.2513 45.6137 11.741 45.5553C12.2234 45.4968 12.6254 45.3799 12.9396 45.1973C13.2539 45.0146 13.4951 44.759 13.6486 44.4229C13.8094 44.0869 13.8825 43.6412 13.8825 43.0933C13.8825 42.5454 13.7948 42.1363 13.6194 41.8148C13.444 41.4934 13.1954 41.2377 12.8665 41.0624C12.5376 40.887 12.1503 40.7629 11.6898 40.6971C11.2367 40.6314 10.725 40.6021 10.1623 40.6021H6.99019V45.6502L6.9975 45.6429Z" fill="#666666"/>
<path d="M20.4223 40.9017V46.6657L19.231 46.6511V33.9688H24.1718C25.5605 33.9688 26.6276 34.2317 27.3658 34.7504C28.1039 35.2764 28.4694 36.1239 28.4694 37.3001C28.4694 38.0964 28.3086 38.7319 27.987 39.2068C27.6654 39.6743 27.1392 40.0761 26.4156 40.4049C26.7883 40.5364 27.0807 40.719 27.2927 40.9674C27.5046 41.2158 27.6581 41.4934 27.7677 41.8148C27.8774 42.1363 27.9432 42.465 27.9724 42.823C28.0016 43.1737 28.0236 43.517 28.0309 43.8458C28.0455 44.3279 28.0601 44.7297 28.0893 45.0439C28.1186 45.358 28.1551 45.621 28.1917 45.8183C28.2355 46.0155 28.2794 46.1762 28.3378 46.2858C28.3963 46.3954 28.4694 46.4831 28.5498 46.5415V46.6438L27.2342 46.6584C27.1026 46.4465 27.0149 46.1543 26.9638 45.7744C26.9126 45.4018 26.8687 45.0073 26.8395 44.5909C26.8103 44.1745 26.7883 43.78 26.7664 43.3928C26.7518 43.0056 26.7153 42.6842 26.6714 42.4431C26.5983 42.0998 26.4887 41.8295 26.3279 41.6249C26.1671 41.4203 25.9771 41.2669 25.7578 41.1574C25.5385 41.0551 25.29 40.982 25.0123 40.9455C24.7346 40.909 24.4568 40.8944 24.1645 40.8944H20.415L20.4223 40.9017ZM24.1425 39.8789C24.5884 39.8789 24.9977 39.8351 25.3777 39.7401C25.7578 39.6451 26.0867 39.499 26.3717 39.2871C26.6568 39.0753 26.8761 38.8196 27.0369 38.5055C27.1976 38.184 27.2854 37.8041 27.2854 37.3585C27.2854 36.8909 27.1976 36.4964 27.0295 36.1969C26.8614 35.8901 26.6349 35.649 26.3425 35.4737C26.0502 35.2984 25.7286 35.1742 25.3631 35.1011C24.9977 35.028 24.6103 34.9988 24.2156 34.9988H20.4296V39.8862H24.1425V39.8789Z" fill="#666666"/>
<path d="M33.1157 46.6657V33.9688H34.3071V46.6657H33.1157Z" fill="#666666"/>
<path d="M39.3198 46.6657V33.9688H43.6321C43.9829 33.9688 44.3264 33.9761 44.6699 33.998C45.0061 34.0126 45.3424 34.0564 45.6713 34.1222C46.0002 34.1879 46.3144 34.2829 46.6287 34.4144C46.9357 34.5459 47.2354 34.7139 47.535 34.9258C47.9589 35.2326 48.3025 35.6052 48.5729 36.0435C48.8433 36.4818 49.0553 36.9494 49.2161 37.4389C49.3769 37.9283 49.4865 38.4178 49.5523 38.9219C49.6181 39.4259 49.6473 39.8862 49.6473 40.3026C49.6473 40.719 49.6181 41.1574 49.5669 41.5884C49.5157 42.0267 49.428 42.4504 49.3111 42.8668C49.1941 43.2832 49.0406 43.6851 48.8433 44.0649C48.6533 44.4448 48.4048 44.7955 48.1124 45.1169C47.8201 45.4457 47.4985 45.7087 47.155 45.9132C46.8114 46.1105 46.446 46.2712 46.0659 46.3808C45.6859 46.4904 45.2912 46.5707 44.8819 46.6072C44.4726 46.6511 44.056 46.6657 43.6394 46.6657H39.3271H39.3198ZM40.5112 45.6429H43.369C43.9098 45.6429 44.4141 45.6137 44.8892 45.5479C45.3643 45.4822 45.8467 45.3215 46.3364 45.0658C46.7603 44.8539 47.1038 44.569 47.3742 44.2037C47.6447 43.8385 47.8566 43.444 48.0174 43.0129C48.1782 42.5819 48.2878 42.1363 48.3536 41.6614C48.4194 41.1866 48.4486 40.7409 48.4486 40.3026C48.4486 39.8424 48.4194 39.3748 48.3609 38.9C48.3025 38.4251 48.1928 37.9722 48.0247 37.5411C47.8639 37.1101 47.6373 36.7156 47.3596 36.3576C47.0819 35.9997 46.7164 35.7002 46.2706 35.4664C45.8978 35.2691 45.452 35.1376 44.9404 35.0792C44.4287 35.0207 43.9025 34.9915 43.3763 34.9915H40.5185V45.6429H40.5112Z" fill="#666666"/>
<path d="M59.0915 41.1758V40.154H64.4889V46.7085H63.4737V44.5407C63.2546 44.9202 62.9989 45.2633 62.7141 45.5699C62.4292 45.8837 62.1006 46.1465 61.7208 46.3655C61.341 46.5844 60.9174 46.7523 60.4207 46.8691C59.9314 46.9859 59.3763 47.0443 58.7555 47.0443C57.9594 47.0443 57.229 46.9056 56.5498 46.6209C55.8705 46.3363 55.2862 45.9202 54.7969 45.3582C54.3075 44.7962 53.9205 44.0955 53.6502 43.2488C53.38 42.4021 53.2412 41.4167 53.2412 40.2853C53.2412 39.3584 53.3581 38.4898 53.5918 37.6869C53.8255 36.884 54.1834 36.1833 54.6727 35.592C55.1548 35.0008 55.7683 34.5337 56.4913 34.1906C57.2144 33.8476 58.0836 33.6797 59.0769 33.6797C59.7415 33.6797 60.3623 33.76 60.9393 33.9279C61.5163 34.0957 62.0348 34.3439 62.495 34.6797C62.9551 35.0154 63.3422 35.4315 63.6563 35.9278C63.9703 36.4241 64.1967 37.0154 64.3428 37.7015H63.1158C63.0135 37.2343 62.831 36.811 62.5826 36.4314C62.3343 36.0519 62.0275 35.738 61.677 35.4899C61.3264 35.2344 60.932 35.0446 60.5011 34.9059C60.0702 34.7745 59.6173 34.7016 59.1499 34.7016C58.3173 34.7016 57.6088 34.8475 57.0099 35.1395C56.411 35.4315 55.9217 35.8475 55.5419 36.3803C55.1548 36.9132 54.8699 37.5555 54.6946 38.3C54.5121 39.0445 54.4244 39.8693 54.4244 40.7598C54.4244 41.4678 54.5267 42.132 54.7312 42.767C54.9357 43.402 55.2351 43.9568 55.6222 44.4385C56.0166 44.9202 56.4913 45.2998 57.061 45.5845C57.6307 45.8691 58.2734 46.0078 58.9965 46.0078C59.3325 46.0078 59.6831 45.9713 60.0482 45.891C60.4134 45.818 60.7567 45.6867 61.1 45.5115C61.4432 45.3363 61.7573 45.1027 62.0495 44.8254C62.3416 44.5407 62.5899 44.1976 62.8017 43.7816C62.9989 43.3801 63.1377 42.9641 63.2107 42.5335C63.2838 42.0955 63.3276 41.643 63.3422 41.1612H59.0842L59.0915 41.1758Z" fill="#666666"/>
<path d="M69.1201 46.6657V33.9688H77.518V34.9915H70.3115V39.5794H76.8164V40.6021H70.3115V45.6502H77.6934V46.673H69.1201V46.6657Z" fill="#666666"/>
<path d="M95.0635 33.9688H96.1159V46.6652H95.0635V45.0581H95.027C94.8735 45.3649 94.6762 45.6352 94.4423 45.8617C94.2012 46.0881 93.9381 46.2854 93.6531 46.4388C93.368 46.5922 93.0684 46.7091 92.7688 46.7894C92.4618 46.8698 92.1695 46.9136 91.8772 46.9136C91.1391 46.9136 90.5179 46.7894 89.999 46.5411C89.4874 46.2927 89.0636 45.9566 88.7274 45.5256C88.3912 45.0946 88.15 44.5906 87.9966 43.9988C87.8431 43.4144 87.77 42.7789 87.77 42.1141C87.77 41.4785 87.8504 40.8649 88.0185 40.2805C88.1866 39.6961 88.4278 39.1774 88.7639 38.7391C89.1001 38.3008 89.5167 37.9428 90.0282 37.6798C90.5398 37.4168 91.1318 37.2853 91.826 37.2853C92.4691 37.2853 93.083 37.4314 93.675 37.7163C94.2669 38.0085 94.7274 38.4322 95.0708 38.9948V33.9688H95.0635ZM95.0635 42.0629C95.0635 41.5443 94.9904 41.0548 94.8516 40.5873C94.7127 40.1198 94.5081 39.718 94.245 39.3673C93.9819 39.024 93.6604 38.7464 93.2803 38.5345C92.9003 38.33 92.4691 38.2277 91.9941 38.2277C91.446 38.2277 90.971 38.3373 90.5763 38.5564C90.1817 38.7756 89.8528 39.0678 89.5971 39.4477C89.3413 39.8275 89.1513 40.2586 89.0343 40.7626C88.9174 41.2594 88.8735 41.8 88.8955 42.3771C88.8955 42.9542 88.9759 43.4582 89.1293 43.9039C89.2828 44.3495 89.5093 44.7221 89.7871 45.0216C90.0648 45.3284 90.3936 45.5622 90.7663 45.7156C91.1391 45.8763 91.5483 45.9566 91.9941 45.9566C92.4838 45.9566 92.9222 45.8544 93.3096 45.6571C93.6969 45.4599 94.0185 45.1823 94.2742 44.8389C94.53 44.4956 94.7274 44.0792 94.8589 43.6044C94.9904 43.1295 95.0635 42.6108 95.0635 42.0629Z" fill="#666666"/>
<path d="M101.159 42.383C101.159 42.8798 101.225 43.3473 101.349 43.7857C101.473 44.224 101.67 44.6112 101.919 44.9326C102.167 45.2541 102.489 45.5171 102.876 45.707C103.264 45.9043 103.71 45.9992 104.207 45.9992C104.894 45.9992 105.486 45.8166 105.975 45.4513C106.465 45.086 106.794 44.5674 106.955 43.9026H108.131C108 44.3409 107.832 44.7427 107.62 45.108C107.408 45.4732 107.145 45.802 106.83 46.0796C106.516 46.3572 106.143 46.5691 105.705 46.7225C105.274 46.8759 104.769 46.949 104.199 46.949C103.476 46.949 102.847 46.8248 102.321 46.5764C101.795 46.328 101.363 45.9919 101.02 45.5609C100.684 45.1299 100.428 44.6258 100.267 44.0414C100.106 43.4569 100.019 42.836 100.019 42.1639C100.019 41.4917 100.114 40.8635 100.311 40.279C100.501 39.6946 100.779 39.1759 101.137 38.7376C101.495 38.2992 101.926 37.9486 102.445 37.7002C102.957 37.4445 103.541 37.3203 104.199 37.3203C105.449 37.3203 106.428 37.7513 107.145 38.6134C107.854 39.4754 108.212 40.732 108.197 42.3757H101.151L101.159 42.383ZM107.086 41.4991C107.086 41.0534 107.028 40.6297 106.904 40.2352C106.779 39.8407 106.597 39.4973 106.363 39.2124C106.121 38.9275 105.822 38.6937 105.456 38.5257C105.091 38.3577 104.682 38.27 104.214 38.27C103.746 38.27 103.337 38.3577 102.979 38.533C102.621 38.7084 102.321 38.9421 102.065 39.2417C101.817 39.5339 101.612 39.8772 101.458 40.2644C101.305 40.6516 101.21 41.0607 101.159 41.4991H107.086Z" fill="#666666"/>
<path d="M112.624 43.8441C112.785 44.6331 113.084 45.1883 113.508 45.5098C113.932 45.8312 114.546 45.9919 115.343 45.9919C115.73 45.9919 116.059 45.9481 116.344 45.8531C116.629 45.7582 116.856 45.634 117.038 45.4732C117.221 45.3125 117.36 45.1372 117.448 44.9326C117.543 44.7354 117.586 44.5235 117.586 44.2971C117.586 43.8514 117.44 43.5154 117.155 43.3035C116.87 43.0843 116.512 42.9163 116.074 42.7921C115.635 42.6679 115.175 42.5657 114.67 42.478C114.166 42.3903 113.698 42.2588 113.267 42.0835C112.836 41.9082 112.478 41.6525 112.185 41.3237C111.9 40.995 111.754 40.5274 111.754 39.9284C111.754 39.1613 112.032 38.5403 112.587 38.0509C113.143 37.5614 113.925 37.3203 114.948 37.3203C115.971 37.3203 116.724 37.5395 117.338 37.9851C117.952 38.4234 118.325 39.1613 118.449 40.1987H117.382C117.287 39.49 117.024 38.9933 116.585 38.7084C116.147 38.4234 115.591 38.2773 114.926 38.2773C114.261 38.2773 113.749 38.4234 113.398 38.7084C113.048 38.9933 112.872 39.3732 112.872 39.848C112.872 40.2571 113.018 40.5713 113.303 40.7904C113.589 41.0096 113.947 41.1849 114.385 41.3164C114.824 41.4479 115.284 41.5721 115.788 41.6744C116.293 41.784 116.761 41.9301 117.192 42.1273C117.623 42.3246 117.981 42.5803 118.274 42.909C118.559 43.2378 118.705 43.698 118.705 44.2824C118.705 44.7208 118.61 45.1007 118.427 45.4367C118.237 45.7728 117.981 46.0504 117.66 46.2768C117.331 46.5033 116.943 46.6713 116.49 46.7809C116.037 46.8905 115.547 46.949 115.006 46.949C114.466 46.949 113.99 46.8686 113.574 46.7079C113.157 46.5471 112.806 46.328 112.514 46.0431C112.222 45.7582 111.995 45.4294 111.827 45.0568C111.666 44.6842 111.571 44.2751 111.549 43.8368H112.616L112.624 43.8441Z" fill="#666666"/>
<path d="M122.636 35.5394V33.9688H123.791V35.5394H122.636ZM122.687 46.6657V37.5265H123.739V46.6657H122.687Z" fill="#666666"/>
<path d="M135.183 37.5692H136.235V45.8252C136.235 46.4389 136.177 47.0234 136.052 47.5787C135.928 48.134 135.709 48.6308 135.395 49.0545C135.08 49.4783 134.649 49.8144 134.101 50.0701C133.553 50.3258 132.844 50.45 131.982 50.45C131.317 50.45 130.739 50.3623 130.264 50.1943C129.782 50.0263 129.395 49.8071 129.088 49.5513C128.781 49.2956 128.554 49.0107 128.393 48.6965C128.233 48.3824 128.152 48.0901 128.138 47.8198H129.263C129.343 48.1632 129.475 48.4408 129.65 48.66C129.826 48.8792 130.03 49.0472 130.272 49.1714C130.513 49.2956 130.776 49.3833 131.068 49.4271C131.361 49.471 131.667 49.5002 131.982 49.5002C132.691 49.5002 133.268 49.376 133.699 49.1276C134.13 48.8792 134.459 48.5577 134.678 48.1559C134.898 47.754 135.044 47.301 135.11 46.7969C135.175 46.2928 135.197 45.7741 135.19 45.248C134.854 45.8106 134.386 46.2417 133.794 46.5266C133.202 46.8115 132.588 46.9577 131.945 46.9577C131.258 46.9577 130.659 46.8261 130.147 46.5631C129.636 46.3001 129.219 45.9421 128.883 45.5037C128.547 45.0654 128.298 44.5466 128.138 43.9621C127.977 43.3776 127.889 42.7639 127.889 42.1283C127.889 41.4561 127.962 40.8278 128.116 40.2433C128.269 39.6588 128.51 39.1474 128.847 38.7163C129.183 38.2852 129.607 37.9492 130.118 37.7007C130.63 37.4523 131.258 37.3281 131.996 37.3281C132.289 37.3281 132.588 37.372 132.888 37.4523C133.195 37.5327 133.487 37.6496 133.772 37.803C134.057 37.9565 134.32 38.1464 134.561 38.3875C134.803 38.6213 135 38.8843 135.146 39.1839H135.183V37.5765V37.5692ZM135.183 42.1721C135.183 41.6168 135.117 41.1054 134.978 40.6305C134.846 40.1556 134.649 39.7392 134.393 39.3958C134.138 39.0524 133.816 38.7747 133.429 38.5775C133.041 38.3802 132.603 38.2779 132.113 38.2779C131.667 38.2779 131.258 38.3583 130.885 38.519C130.513 38.6798 130.184 38.9063 129.906 39.2131C129.629 39.52 129.409 39.8926 129.248 40.331C129.088 40.7693 129.015 41.2808 129.015 41.858C128.993 42.4351 129.037 42.9758 129.153 43.4726C129.27 43.9694 129.46 44.4078 129.716 44.7877C129.972 45.1676 130.301 45.4599 130.695 45.6791C131.09 45.8983 131.565 46.0079 132.113 46.0079C132.596 46.0079 133.019 45.9056 133.399 45.701C133.78 45.4964 134.101 45.2188 134.364 44.8754C134.627 44.532 134.832 44.1229 134.971 43.6553C135.11 43.1877 135.183 42.6982 135.183 42.1794V42.1721Z" fill="#666666"/>
<path d="M141.687 46.7079H140.634V37.5687H141.687V38.8399C142.111 38.3942 142.542 38.0289 142.995 37.744C143.448 37.4591 143.989 37.3203 144.618 37.3203C145.18 37.3203 145.699 37.4153 146.174 37.6125C146.65 37.8098 147.059 38.1458 147.388 38.628C147.607 38.9567 147.739 39.2928 147.782 39.6435C147.826 39.9868 147.841 40.3521 147.841 40.7247V46.7006H146.788V40.7393C146.788 39.9138 146.606 39.3001 146.248 38.891C145.882 38.4819 145.283 38.27 144.442 38.27C144.113 38.27 143.814 38.3212 143.551 38.4234C143.28 38.5257 143.039 38.6572 142.82 38.8179C142.6 38.986 142.418 39.1686 142.264 39.3805C142.111 39.5923 141.994 39.8188 141.913 40.0526C141.811 40.3448 141.745 40.6297 141.723 40.9C141.701 41.1703 141.687 41.4625 141.687 41.784V46.7079Z" fill="#666666"/>
</svg>
